<svg xmlns="http://www.w3.org/2000/svg" version="1.1" xmlns:xlink="http://www.w3.org/1999/xlink" xmlns:svgjs="http://svgjs.dev/svgjs" width="100%" height="100%" viewBox="0 0 1000 600"><rect width="1000" height="600" x="0" y="0" fill="#ee4e34"/><g><rect width="333.3333333333333" height="333.3333333333333" rx="13.333333333333334" ry="13.333333333333334" y="137.68170721199084" fill="#fcedda" transform="matrix(1.0826308670148155,0,0,1.0826308670148153,0,-29.496944517223653)" x="115.45948028564456"/><path d="M219.744126580887 255.9384473928908L219.744126580887 229.34837855067798L344.50817644932533 229.34837855067798L344.50817644932533 255.9384473928908Q344.50817644932533 263.0168222004243 334.7523294319857 262.1243314638222L334.7523294319857 262.1243314638222L333.1827767572717 240.64300270009014L290.43554802829766 240.64300270009014L290.43554802829766 368.26917803418337L307.2697698531708 369.5925263677657Q308.16226058977287 379.34837338510533 301.05311023959797 379.34837338510533L301.05311023959797 379.34837338510533L256.9825331770415 379.34837338510533Q256.9825331770415 379.34837338510533 256.9825331770415 377.56339191190125L256.9825331770415 377.56339191190125Q256.9825331770415 371.8083654379501 260.0600874411865 370.05415950738745L260.0600874411865 370.05415950738745Q261.6296401159005 369.3770975692755 263.8454791860849 369.16166877078535L263.8454791860849 369.16166877078535L274.4630413973851 368.7000356311636L274.4630413973851 240.64300270009014L231.03875073029917 240.64300270009014L229.49997359822666 262.1243314638222Q219.744126580887 263.0168222004243 219.744126580887 255.9384473928908L219.744126580887 255.9384473928908Z " fill="#ee4e34" transform="matrix(1.0826308670148155,0,0,1.0826308670148153,0,-29.496944517223653)"/><path d="M607.6618626208194 358.85025595969034L621.05471957161 360.48559428210274Q621.05471957161 370.0156693334021 608.4513362937081 370.0156693334021Q595.8761485041236 370.0156693334021 593.846073345267 357.2431131255955L593.846073345267 357.2431131255955Q580.8479532309207 369.81830091518 562.5772768012106 369.81830091518L562.5772768012106 369.81830091518Q548.5641191074359 369.81830091518 540.3592320070569 362.60025590591175Q532.1261494183603 355.410406384961 532.1261494183603 343.0325870135987Q532.1261494183603 330.62657215391897 541.2614876332153 322.1115346820479Q550.3968258480704 313.5964972101768 571.5152465978434 313.5964972101768L571.5152465978434 313.5964972101768Q583.8930659692057 313.5964972101768 593.4513365088226 316.4160460419222L593.4513365088226 316.4160460419222L593.4513365088226 300.4010086776084Q593.4513365088226 288.81266297913476 587.6430659154271 281.8201818764062Q581.8629908103491 274.79950528536017 570.6975774366373 274.79950528536017Q559.5321640629255 274.79950528536017 554.7671265372758 280.80514429697786Q550.002089011626 286.7825878202781 549.381788268642 294.70552003748264L549.381788268642 294.70552003748264Q544.5039687897225 295.10025687392704 541.2614876332153 292.67544487862597Q538.0190064767081 290.25063288332495 538.0190064767081 284.7525126614214L538.0190064767081 284.7525126614214Q538.0190064767081 276.04010677132817 546.9569762733411 270.2318361779326Q555.894946069974 264.4517610728546 570.1054721819708 264.4517610728546L570.1054721819708 264.4517610728546Q582.4832915533331 264.4517610728546 593.6487049270448 270.5419865494246L593.6487049270448 270.5419865494246Q599.936298821837 273.78446770593183 603.7990807213282 281.31266308669206Q607.6618626208194 288.81266297913476 607.6618626208194 299.5833395164022L607.6618626208194 299.5833395164022L607.6618626208194 358.85025595969034ZM593.4513365088226 347.68484258597863L593.4513365088226 328.5964969950623Q584.0904343874279 323.52130909792055 571.7126150160656 323.52130909792055Q559.3347956447034 323.52130909792055 553.5547205396252 328.20176015861796Q547.7746454345472 332.8822112193153 547.7746454345472 341.002511854742Q547.7746454345472 349.12281249016877 552.849833331689 353.88785001581846Q557.9250212288306 358.6528875414682 566.8347955371461 358.6528875414682L566.8347955371461 358.6528875414682Q581.0453216491429 358.6528875414682 593.4513365088226 347.68484258597863L593.4513365088226 347.68484258597863ZM738.6017103670755 366.7731881768949L738.6017103670755 366.7731881768949L700.8197560216872 366.7731881768949L700.8197560216872 365.1378498544826Q700.8197560216872 360.2882258638805 703.6675003417502 359.04762437791254L703.6675003417502 359.04762437791254Q705.1054702459402 358.2581507050238 707.1355454047969 358.0325867984842L707.1355454047969 358.0325867984842L716.0453197131123 357.63784996203987L716.0453197131123 305.0532642499883Q716.0453197131123 276.6322120259947 693.5171245474667 276.6322120259947L693.5171245474667 276.6322120259947Q685.1994554938177 276.6322120259947 678.4889292742637 279.8746931825019Q671.8065985430271 283.14536982732653 663.2633655828386 290.25063288332495L663.2633655828386 290.25063288332495L663.2633655828386 357.2431131255955L677.6994556013749 358.455519123246Q678.4889292742637 366.7731881768949 672.2013353794714 366.7731881768949L672.2013353794714 366.7731881768949L634.0528396859563 366.7731881768949L634.0528396859563 365.1378498544826Q634.0528396859563 358.6528875414682 640.5378019989707 358.0325867984842L640.5378019989707 358.0325867984842L649.2784033773814 357.63784996203987L649.2784033773814 277.64724960542304L638.7050952583362 276.4348436077725Q633.8272757794166 276.04010677132817 633.8272757794166 268.1171745541236L633.8272757794166 268.1171745541236L660.0208844263313 264.6491294910768L662.671260328172 280.1002570890415L663.2633655828386 280.1002570890415Q679.7295307602317 264.4517610728546 697.1825380287356 264.4517610728546L697.1825380287356 264.4517610728546Q710.7727633977485 264.4517610728546 720.4156204023177 274.0100316124715Q730.0584774068869 283.54010666377087 730.0584774068869 303.4461214158934L730.0584774068869 303.4461214158934L730.0584774068869 357.2431131255955L744.2690035188837 358.455519123246Q745.0866726800899 366.7731881768949 738.6017103670755 366.7731881768949ZM767.8122362639579 229.3483781176244L767.8122362639579 229.3483781176244L808.2163710228692 229.3483781176244Q808.2163710228692 229.3483781176244 808.2163710228692 230.9555209517193L808.2163710228692 230.9555209517193Q808.2163710228692 236.45364117362283 805.3686267028064 237.66604717127333L805.3686267028064 237.66604717127333Q803.9588522869337 238.4837163324795 801.9287771280771 238.6810847507017L801.9287771280771 238.6810847507017L793.413739656206 239.07582158714604L793.413739656206 340.382211111758Q793.413739656206 357.44048154381767 785.2934390207793 368.4085264993073Q777.1731383853524 379.34837596647935 763.3573491098 379.34837596647935L763.3573491098 379.34837596647935Q756.4494544720238 379.34837596647935 751.6844169463741 375.7957444384802Q746.9193794207243 372.243112910481 746.9193794207243 367.5908573381011L746.9193794207243 367.5908573381011Q746.9193794207243 357.83521838026206 756.8723867967857 358.2581507050238L756.8723867967857 358.2581507050238Q757.26712363323 368.18296259276764 766.7971986845295 368.18296259276764L766.7971986845295 368.18296259276764Q772.8874241610995 368.18296259276764 775.8479504344322 362.5156694409594Q778.7802812194474 356.82018080083367 778.7802812194474 342.41228627061474L778.7802812194474 342.41228627061474L778.7802812194474 239.49875391190784L762.1449431121496 238.25815242593987Q761.3272739509433 229.3483781176244 767.8122362639579 229.3483781176244Z " fill="#fcedda" transform="matrix(1.0826308670148155,0,0,1.0826308670148153,0,-29.496944517223653)"/></g></svg>